<svg width="23" height="26" viewBox="0 0 23 26" fill="none" xmlns="http://www.w3.org/2000/svg">
<path d="M6.4211 1.66005C6.55095 1.18395 6.87015 0.940486 7.37872 0.929665H8.38503C8.82867 0.929665 9.11542 1.27592 9.24527 1.96844L12.183 18.7998L16.5491 1.66005C16.679 1.17313 17.0144 0.929665 17.5555 0.929665H18.5131C18.7836 0.929665 18.9784 1.03246 19.0974 1.23805C19.2164 1.44364 19.2435 1.68711 19.1785 1.96844L13.4977 24.2696C13.3679 24.7565 13.0325 25 12.4914 25H11.3066C11.0252 25 10.8467 24.8702 10.771 24.6105C10.7277 24.4482 10.6952 24.3129 10.6736 24.2047C10.6628 24.0965 10.6519 24.0207 10.6411 23.9775L7.70334 7.211L3.35347 24.2696C3.22362 24.7565 2.8936 25 2.36339 25H1.38954C1.11903 25 0.924256 24.9026 0.80523 24.7078C0.686204 24.5023 0.659152 24.2588 0.724076 23.9775L6.4211 1.66005Z" fill="white"/>
<path d="M20.6233 25.633C20.1797 25.633 19.7956 25.4491 19.4709 25.0812C19.1463 24.7133 18.984 24.2696 18.984 23.7502C18.984 23.22 19.1517 22.7764 19.4872 22.4193C19.8334 22.0514 20.2771 21.8674 20.8181 21.8674H21.1752C21.5972 21.8674 21.9813 22.0622 22.3276 22.4518C22.6738 22.8305 22.847 23.2795 22.847 23.7989C22.847 24.3183 22.6684 24.7511 22.3113 25.0974C21.9543 25.4545 21.4998 25.633 20.948 25.633H20.6233Z" fill="#F9AA33"/>
</svg>
