<svg width="106" height="27" viewBox="0 0 106 27" fill="none" xmlns="http://www.w3.org/2000/svg">
<path d="M6.4211 1.66005C6.55095 1.18395 6.87015 0.940486 7.37872 0.929665H8.38503C8.82867 0.929665 9.11542 1.27592 9.24527 1.96844L12.183 18.7998L16.5491 1.66005C16.679 1.17313 17.0144 0.929665 17.5555 0.929665H18.5131C18.7836 0.929665 18.9784 1.03246 19.0974 1.23805C19.2164 1.44364 19.2435 1.68711 19.1785 1.96844L13.4977 24.2696C13.3679 24.7565 13.0325 25 12.4914 25H11.3066C11.0252 25 10.8467 24.8702 10.771 24.6105C10.7277 24.4482 10.6952 24.3129 10.6736 24.2047C10.6628 24.0965 10.6519 24.0207 10.6411 23.9775L7.70334 7.211L3.35347 24.2696C3.22362 24.7565 2.8936 25 2.36339 25H1.38954C1.11903 25 0.924256 24.9026 0.80523 24.7078C0.686204 24.5023 0.659152 24.2588 0.724076 23.9775L6.4211 1.66005ZM21.305 18.248C23.5557 17.2741 25.0868 15.954 25.8984 14.2876C26.3095 13.4328 26.5151 12.5942 26.5151 11.7719C26.5151 10.9495 26.2771 10.5383 25.801 10.5383C24.7622 10.5383 23.8641 11.3499 23.1067 12.9729C22.36 14.596 21.7595 16.3544 21.305 18.248ZM20.883 20.4391C20.7207 21.3697 20.7315 22.0243 20.9155 22.4031C21.0994 22.771 21.3916 23.0036 21.792 23.101C22.6143 22.798 23.6206 21.9702 24.8109 20.6177C25.0165 20.4121 25.2383 20.3904 25.4764 20.5528L26.1094 20.9423C26.2392 21.018 26.3312 21.1371 26.3853 21.2994C26.4502 21.4509 26.4556 21.5753 26.4015 21.6727C25.9903 22.4734 25.2113 23.3282 24.0643 24.2372C22.9281 25.1353 22.0138 25.514 21.3213 25.3733C19.7523 24.9946 18.8325 24.1722 18.562 22.9062C18.3564 21.8999 18.3943 20.5528 18.6756 18.8647C18.9678 17.1767 19.5034 15.4346 20.2825 13.6384C21.4186 11.009 22.7333 9.34806 24.2266 8.65555C25.406 8.1037 26.4827 8.04418 27.4565 8.47701C28.4412 8.90983 28.9335 9.98647 28.9335 11.7069C28.9335 12.7024 28.6901 13.6817 28.2031 14.6447C27.3267 16.3652 25.7793 17.8747 23.5611 19.1731C22.6955 19.6817 21.8028 20.1037 20.883 20.4391ZM36.87 2.99098C36.87 2.99098 36.4318 4.70063 35.5553 8.11993H37.3082C37.5571 8.11993 37.7194 8.17403 37.7952 8.28224C37.8709 8.39044 37.8709 8.5798 37.7952 8.85032L37.5679 9.71055C37.4273 10.1975 37.1405 10.4409 36.7077 10.4409H34.971L31.4489 24.2696C31.319 24.7565 30.989 25 30.4588 25H29.8258C29.4687 25 29.2144 24.8972 29.063 24.6916C28.9223 24.486 28.8844 24.2317 28.9493 23.9288L32.3903 10.4409H31.0918C30.8646 10.4409 30.7131 10.3868 30.6374 10.2786C30.5724 10.1596 30.5778 9.9486 30.6536 9.64563L30.9133 8.75293C31.0323 8.33093 31.2758 8.11993 31.6437 8.11993H32.9908L34.3055 2.95852C34.4354 2.4716 34.7708 2.22813 35.3118 2.22813H36.1396C36.7456 2.22813 36.989 2.48242 36.87 2.99098ZM41.9236 11.4148L44.6341 11.4635C46.2139 11.5068 47.3285 10.4788 47.9777 8.37962C48.4646 6.82146 48.4538 5.50135 47.9452 4.4193C47.5773 3.6294 46.9173 3.23444 45.9651 3.23444H44.0174L41.9236 11.4148ZM41.3068 3.23444H40.479C40.1869 3.23444 39.9326 3.14788 39.7162 2.97475C39.4998 2.7908 39.424 2.58521 39.489 2.35798L39.6837 1.59513C39.727 1.40036 39.8298 1.24346 39.9921 1.12444C40.1544 0.994589 40.3059 0.929665 40.4466 0.929665H45.9651C47.6423 0.929665 48.9245 1.3679 49.8118 2.24436C50.6991 3.11001 51.1427 4.45717 51.1427 6.28584C51.1427 8.1037 50.6341 9.64563 49.617 10.9116C48.9028 11.7989 48.14 12.4265 47.3285 12.7944C47.8695 13.119 48.3077 13.5897 48.6432 14.2065C48.9894 14.8124 49.0922 15.8079 48.9515 17.193C48.7027 19.6709 47.6044 21.7322 45.6567 23.3769C44.4123 24.459 42.5891 25 40.1869 25H36.6973C36.4267 25 36.232 24.9026 36.1129 24.7078C35.9939 24.5023 35.9669 24.2588 36.0318 23.9775L41.3068 3.23444ZM39.0345 22.7277L41.1445 22.6465C42.2698 22.6141 43.3194 22.1326 44.2933 21.202C45.278 20.2714 45.911 19.1082 46.1923 17.7124C46.5818 16.1542 46.4033 15.0397 45.6567 14.3688C45.3753 14.1091 44.9479 13.9468 44.3744 13.8819C43.801 13.817 42.7838 13.7791 41.323 13.7683L39.0345 22.7277ZM60.5901 16.2678L57.5549 21.3805C56.8407 22.6032 56.1212 23.5122 55.3962 24.1073C54.6712 24.7024 54.0274 25 53.4647 25H53.27C52.5883 25 52.0526 24.6267 51.6631 23.8801C51.2736 23.1226 51.2411 22.1434 51.5657 20.9423L54.958 8.57439C55.0229 8.27142 55.2014 8.11993 55.4936 8.11993H57.2141C57.3331 8.11993 57.4251 8.18485 57.49 8.3147C57.5657 8.44454 57.5657 8.64472 57.49 8.91524L54.1302 20.4391C53.903 21.3481 53.9354 21.8188 54.2276 21.8512C54.5522 21.8837 55.104 21.3156 55.8831 20.147C56.6622 18.9675 57.9607 16.7223 59.7785 13.4112C61.5964 10.1001 62.5324 8.41749 62.5865 8.36339C62.6406 8.29847 62.6838 8.24977 62.7163 8.21731C62.7596 8.18485 62.8137 8.16321 62.8786 8.15239C62.9435 8.13075 62.9868 8.11993 63.0085 8.11993H64.5017C64.6315 8.11993 64.7398 8.20649 64.8263 8.37962C64.9237 8.54193 64.9399 8.74211 64.875 8.98016L60.8498 24.1398C60.7957 24.4427 60.7199 24.6646 60.6225 24.8052C60.536 24.9351 60.3899 25 60.1843 25H58.8209C58.5396 25 58.3556 24.9351 58.2691 24.8052C58.1933 24.6754 58.1987 24.4211 58.2853 24.0424L60.5901 16.2678ZM71.2118 7.90893C71.2118 7.90893 71.3795 7.90893 71.715 7.90893C72.4616 7.90893 73.1541 8.19567 73.7925 8.76916C74.4418 9.34265 74.9666 10.0568 75.3669 10.9116C75.4427 11.0523 75.4643 11.2362 75.4318 11.4635C75.4102 11.6907 75.3128 11.8584 75.1397 11.9666L74.1496 12.5347C73.9657 12.6754 73.7763 12.7349 73.5815 12.7133C73.3868 12.6916 73.2569 12.6159 73.192 12.486C73.1271 12.3562 73.0189 12.1127 72.8674 11.7556C72.7159 11.3986 72.586 11.1389 72.4778 10.9766C72.3804 10.8034 72.2073 10.6195 71.9584 10.4247C71.7204 10.2191 71.4499 10.1001 71.1469 10.0676C70.6059 10.1758 70.0865 10.5437 69.5887 11.1713C69.1018 11.7989 68.8583 12.6754 68.8583 13.8007C68.8583 14.2876 68.972 14.6285 69.1992 14.8233C69.4264 15.018 69.843 15.1749 70.449 15.294L71.3904 15.4887C72.7429 15.7809 73.4192 16.9008 73.4192 18.8485C73.4192 19.9955 72.981 21.3264 72.1045 22.8413C71.6825 23.5555 71.1144 24.156 70.4003 24.6429C69.6969 25.1298 68.9287 25.3733 68.0955 25.3733H67.8683C67.0243 25.3733 66.2668 25.0812 65.5959 24.4968C64.9359 23.9017 64.476 23.3012 64.2163 22.6952C63.9458 22.0784 63.9404 21.6186 64.2001 21.3156L64.9305 20.7151C65.1685 20.4878 65.4174 20.3904 65.6771 20.4229C65.9368 20.4445 66.1099 20.6393 66.1965 21.0072C66.2939 21.3751 66.5644 21.8133 67.008 22.3219C67.4625 22.8305 67.8791 23.101 68.2578 23.1335C68.9287 23.0252 69.5076 22.6357 69.9945 21.9648C70.4814 21.2831 70.7249 20.5095 70.7249 19.6438C70.7249 18.7674 70.6383 18.2047 70.4652 17.9558C70.2921 17.7069 69.9242 17.5176 69.3615 17.3877L68.6311 17.2254C67.7546 17.0198 67.1379 16.6628 66.7808 16.1542C66.4345 15.6456 66.2614 14.9477 66.2614 14.0604C66.2614 13.1623 66.4941 12.2317 66.9593 11.2687C67.4246 10.3057 68.0468 9.50496 68.8259 8.86655C69.605 8.22813 70.4003 7.90893 71.2118 7.90893ZM79.8813 9.11001C80.3358 8.68801 80.8119 8.38503 81.3096 8.20108C81.8182 8.00631 82.3051 7.94139 82.7704 8.00631C83.2465 8.06041 83.7118 8.22813 84.1662 8.50947C84.7938 8.88819 85.324 9.32642 85.7569 9.82417C86.1897 10.3111 86.2763 10.706 86.0166 11.009L85.4485 11.642C85.0698 12.0207 84.7343 12.0748 84.4422 11.8043C84.4097 11.7719 84.2799 11.642 84.0526 11.4148C83.8254 11.1767 83.636 10.9874 83.4846 10.8467C83.0084 10.4463 82.5756 10.2786 82.1861 10.3436C81.3962 10.495 80.5576 11.3445 79.6703 12.8918C78.7938 14.4391 78.1554 16.0352 77.7551 17.6799C77.3547 19.3246 77.2573 20.7096 77.4629 21.835C77.5062 22.0947 77.7118 22.3381 78.0797 22.5654C78.4584 22.7818 78.7397 22.8738 78.9237 22.8413C79.6054 22.4626 80.352 21.7971 81.1635 20.8449C81.3475 20.6501 81.5098 20.5582 81.6505 20.569C81.7911 20.569 81.9805 20.6393 82.2185 20.78L82.7217 21.1046C82.9814 21.2561 83.0788 21.44 83.0139 21.6564C82.8299 22.2732 82.2348 22.9982 81.2285 23.8314C80.2222 24.6537 79.4972 25.1244 79.0535 25.2435C78.6099 25.3625 77.9444 25.1948 77.0571 24.7403C76.1699 24.2858 75.618 23.8422 75.4016 23.4094C74.9471 22.3814 74.8173 21.11 75.0121 19.5951C75.2176 18.0694 75.5693 16.5978 76.0671 15.1803C76.5648 13.7628 77.0517 12.7078 77.5278 12.0153C78.0039 11.312 78.4043 10.7601 78.7289 10.3598C79.0535 9.9486 79.4377 9.53201 79.8813 9.11001ZM93.7721 10.6357C92.7008 10.0298 91.846 9.94319 91.2076 10.376C90.5692 10.798 89.9578 11.6474 89.3735 12.9243C88.378 15.0884 87.6855 17.22 87.2959 19.3192C87.1228 20.2498 87.0525 20.9152 87.0849 21.3156C87.1282 21.7051 87.2959 21.9811 87.5881 22.1434C87.8803 22.3057 88.2644 22.1921 88.7405 21.8025C89.2274 21.413 89.7306 20.8233 90.25 20.0334C90.7802 19.2435 91.2941 18.2047 91.7919 16.917C92.3005 15.6186 92.9605 13.5248 93.7721 10.6357ZM94.2752 8.76916C94.3942 8.2606 94.6485 8.00631 95.0381 8.00631L95.8009 7.97385C96.2013 7.97385 96.4826 8.08206 96.6449 8.29847C96.8072 8.51488 96.8289 8.80703 96.7098 9.17493L92.7333 22.468C93.415 21.9702 94.0967 21.2399 94.7784 20.2768C95.0164 19.9306 95.2923 19.8548 95.6061 20.0496L96.4014 20.5852C96.7477 20.8124 96.8018 21.0884 96.5638 21.413C95.6656 22.4842 94.8325 23.312 94.0642 23.8963C93.2959 24.4698 92.3924 24.881 91.3537 25.1298C91.213 25.1623 91.0831 25.1407 90.9641 25.0649C90.8559 24.9892 90.7856 24.8918 90.7531 24.7728L90.1201 22.9225C89.7739 23.4202 89.341 23.9071 88.8216 24.3832C88.3131 24.8593 87.8694 25.0974 87.4907 25.0974H87.4258C87.2527 25.0974 86.9767 24.9729 86.598 24.7241C86.2301 24.4644 85.938 24.2047 85.7216 23.945C85.516 23.6853 85.3699 23.5014 85.2833 23.3931C85.2076 23.2849 85.121 23.1497 85.0236 22.9874C84.9262 22.8142 84.8559 22.6465 84.8126 22.4842C84.7693 22.3219 84.7315 22.1326 84.699 21.9161C84.6341 21.5374 84.6449 20.9802 84.7315 20.2444C84.9695 18.4373 85.5268 16.376 86.4032 14.0604C87.2905 11.734 88.1562 10.1758 89.0002 9.38593C89.8442 8.58521 90.9046 8.18485 92.1814 8.18485C92.928 8.18485 93.626 8.37962 94.2752 8.76916Z" fill="white"/>
<circle cx="103.5" cy="23.5" r="2.5" fill="#F9AA33"/>
</svg>
