<svg width="118" height="118" viewBox="0 0 118 118" fill="none" xmlns="http://www.w3.org/2000/svg">
<path fill-rule="evenodd" clip-rule="evenodd" d="M36.5722 75.5053C53.3995 73.0469 64.9856 73.2583 81.835 75.5913C83.0552 75.7682 84.1702 76.3806 84.9741 77.3155C85.778 78.2504 86.2164 79.4446 86.2084 80.6776C86.2084 81.8576 85.8027 83.0032 85.0702 83.898C83.7933 85.4581 82.4852 86.9925 81.1467 88.5H87.6391C88.0472 88.0133 88.4577 87.5167 88.8732 87.0127C90.3314 85.2245 91.1269 82.9874 91.125 80.68C91.125 75.7019 87.4916 71.4121 82.5086 70.7238C65.2609 68.3368 53.2052 68.1081 35.8617 70.6427C30.827 71.3777 27.2084 75.7339 27.2084 80.7464C27.2084 82.9712 27.9336 85.1714 29.3078 86.9537C29.7134 87.4798 30.1141 87.996 30.5124 88.5025H36.8475C35.6022 87.0115 34.3875 85.4952 33.2042 83.9545C32.5011 83.0322 32.1217 81.9037 32.125 80.744C32.125 78.0963 34.0278 75.8765 36.5722 75.5053Z" fill="#F8F8F8"/>
<path fill-rule="evenodd" clip-rule="evenodd" d="M59.1667 51.625C61.1037 51.625 63.0217 51.2435 64.8112 50.5022C66.6008 49.761 68.2268 48.6745 69.5965 47.3048C70.9662 45.9352 72.0526 44.3091 72.7939 42.5196C73.5351 40.73 73.9167 38.812 73.9167 36.875C73.9167 34.938 73.5351 33.02 72.7939 31.2304C72.0526 29.4409 70.9662 27.8148 69.5965 26.4452C68.2268 25.0755 66.6008 23.989 64.8112 23.2478C63.0217 22.5065 61.1037 22.125 59.1667 22.125C55.2547 22.125 51.503 23.679 48.7368 26.4452C45.9707 29.2113 44.4167 32.9631 44.4167 36.875C44.4167 40.7869 45.9707 44.5387 48.7368 47.3048C51.503 50.071 55.2547 51.625 59.1667 51.625ZM59.1667 56.5417C64.3826 56.5417 69.3849 54.4696 73.0731 50.7814C76.7613 47.0932 78.8333 42.0909 78.8333 36.875C78.8333 31.6591 76.7613 26.6568 73.0731 22.9686C69.3849 19.2803 64.3826 17.2083 59.1667 17.2083C53.9507 17.2083 48.9484 19.2803 45.2602 22.9686C41.572 26.6568 39.5 31.6591 39.5 36.875C39.5 42.0909 41.572 47.0932 45.2602 50.7814C48.9484 54.4696 53.9507 56.5417 59.1667 56.5417Z" fill="#F8F8F8"/>
<path fill-rule="evenodd" clip-rule="evenodd" d="M59.1667 93.4167C83.605 93.4167 103.417 73.605 103.417 49.1667C103.417 24.7284 83.605 4.91667 59.1667 4.91667C34.7284 4.91667 14.9167 24.7284 14.9167 49.1667C14.9167 73.605 34.7284 93.4167 59.1667 93.4167ZM59.1667 98.3333C86.3214 98.3333 108.333 76.3214 108.333 49.1667C108.333 22.0119 86.3214 0 59.1667 0C32.0119 0 10 22.0119 10 49.1667C10 76.3214 32.0119 98.3333 59.1667 98.3333Z" fill="#F8F8F8"/>
</svg>
